<mxfile host="app.diagrams.net" agent="Mozilla/5.0 (Windows NT 10.0; Win64; x64) AppleWebKit/537.36 (KHTML, like Gecko) Chrome/127.0.0.0 Safari/537.36" version="24.7.7">
  <diagram name="Page-1" id="DVn_xOrRkfsCehfgAXzV">
    <mxGraphModel dx="4052" dy="2474" grid="1" gridSize="10" guides="1" tooltips="1" connect="1" arrows="1" fold="1" page="1" pageScale="1" pageWidth="827" pageHeight="1169" math="0" shadow="0">
      <root>
        <mxCell id="0" />
        <mxCell id="1" parent="0" />
        <mxCell id="0_HJmTUbj6Sz99VHN0pY-1" value="Bank" style="swimlane;fontStyle=1;align=center;verticalAlign=top;childLayout=stackLayout;horizontal=1;startSize=26;horizontalStack=0;resizeParent=1;resizeParentMax=0;resizeLast=0;collapsible=1;marginBottom=0;whiteSpace=wrap;html=1;" vertex="1" parent="1">
          <mxGeometry x="1090" y="-10" width="350" height="140" as="geometry">
            <mxRectangle x="180" y="140" width="70" height="30" as="alternateBounds" />
          </mxGeometry>
        </mxCell>
        <mxCell id="0_HJmTUbj6Sz99VHN0pY-2" value="- _accounts: List&amp;lt;Account&amp;gt;&lt;div&gt;&lt;br&gt;&lt;/div&gt;" style="text;strokeColor=none;fillColor=none;align=left;verticalAlign=top;spacingLeft=4;spacingRight=4;overflow=hidden;rotatable=0;points=[[0,0.5],[1,0.5]];portConstraint=eastwest;whiteSpace=wrap;html=1;" vertex="1" parent="0_HJmTUbj6Sz99VHN0pY-1">
          <mxGeometry y="26" width="350" height="24" as="geometry" />
        </mxCell>
        <mxCell id="0_HJmTUbj6Sz99VHN0pY-3" value="" style="line;strokeWidth=1;fillColor=none;align=left;verticalAlign=middle;spacingTop=-1;spacingLeft=3;spacingRight=3;rotatable=0;labelPosition=right;points=[];portConstraint=eastwest;strokeColor=inherit;" vertex="1" parent="0_HJmTUbj6Sz99VHN0pY-1">
          <mxGeometry y="50" width="350" height="8" as="geometry" />
        </mxCell>
        <mxCell id="0_HJmTUbj6Sz99VHN0pY-4" value="+ AddAcocount( account : Account)&lt;div&gt;+ GetAccount( name :&amp;nbsp;&lt;span style=&quot;background-color: initial;&quot;&gt;string&lt;/span&gt;&lt;span style=&quot;background-color: initial;&quot;&gt;) : Account&amp;nbsp;&lt;/span&gt;&lt;/div&gt;&lt;div&gt;+ ExecuteTransaction( transaction :&amp;nbsp;&lt;span style=&quot;background-color: initial;&quot;&gt;WithdrawTransaction&lt;/span&gt;&lt;span style=&quot;background-color: initial;&quot;&gt;)&lt;/span&gt;&lt;/div&gt;&lt;div&gt;+ ExecuteTransaction( transaction :&amp;nbsp;&lt;span style=&quot;background-color: initial;&quot;&gt;DepositTransaction&lt;/span&gt;&lt;span style=&quot;background-color: initial;&quot;&gt;)&lt;/span&gt;&lt;/div&gt;&lt;div&gt;+ ExecuteTransaction( transaction :&amp;nbsp;&lt;span style=&quot;background-color: initial;&quot;&gt;TransferTransaction&lt;/span&gt;&lt;span style=&quot;background-color: initial;&quot;&gt;)&lt;/span&gt;&lt;/div&gt;" style="text;strokeColor=none;fillColor=none;align=left;verticalAlign=top;spacingLeft=4;spacingRight=4;overflow=hidden;rotatable=0;points=[[0,0.5],[1,0.5]];portConstraint=eastwest;whiteSpace=wrap;html=1;" vertex="1" parent="0_HJmTUbj6Sz99VHN0pY-1">
          <mxGeometry y="58" width="350" height="82" as="geometry" />
        </mxCell>
        <mxCell id="0_HJmTUbj6Sz99VHN0pY-5" value="Account" style="swimlane;fontStyle=1;align=center;verticalAlign=top;childLayout=stackLayout;horizontal=1;startSize=26;horizontalStack=0;resizeParent=1;resizeParentMax=0;resizeLast=0;collapsible=1;marginBottom=0;whiteSpace=wrap;html=1;" vertex="1" parent="1">
          <mxGeometry x="1620" y="100" width="300" height="160" as="geometry" />
        </mxCell>
        <mxCell id="0_HJmTUbj6Sz99VHN0pY-6" value="&lt;div&gt;- _balance : decimal&lt;/div&gt;&lt;div&gt;_name : strin&lt;/div&gt;&lt;div&gt;&lt;/div&gt;" style="text;strokeColor=none;fillColor=none;align=left;verticalAlign=top;spacingLeft=4;spacingRight=4;overflow=hidden;rotatable=0;points=[[0,0.5],[1,0.5]];portConstraint=eastwest;whiteSpace=wrap;html=1;" vertex="1" parent="0_HJmTUbj6Sz99VHN0pY-5">
          <mxGeometry y="26" width="300" height="44" as="geometry" />
        </mxCell>
        <mxCell id="0_HJmTUbj6Sz99VHN0pY-7" value="" style="line;strokeWidth=1;fillColor=none;align=left;verticalAlign=middle;spacingTop=-1;spacingLeft=3;spacingRight=3;rotatable=0;labelPosition=right;points=[];portConstraint=eastwest;strokeColor=inherit;" vertex="1" parent="0_HJmTUbj6Sz99VHN0pY-5">
          <mxGeometry y="70" width="300" height="8" as="geometry" />
        </mxCell>
        <mxCell id="0_HJmTUbj6Sz99VHN0pY-8" value="&lt;div&gt;+ Account( _name:string, _balance decimal)&lt;/div&gt;&lt;div&gt;+ Name : string&amp;lt;&amp;lt;property&amp;gt;&amp;gt;&lt;/div&gt;&lt;div&gt;+ Print()&lt;/div&gt;&lt;div&gt;+ Withdraw(amount : decimal): bool&lt;/div&gt;&lt;div&gt;+ Deposit(amount : decimal): bool&lt;/div&gt;&lt;div&gt;&lt;br&gt;&lt;/div&gt;" style="text;strokeColor=none;fillColor=none;align=left;verticalAlign=top;spacingLeft=4;spacingRight=4;overflow=hidden;rotatable=0;points=[[0,0.5],[1,0.5]];portConstraint=eastwest;whiteSpace=wrap;html=1;" vertex="1" parent="0_HJmTUbj6Sz99VHN0pY-5">
          <mxGeometry y="78" width="300" height="82" as="geometry" />
        </mxCell>
        <mxCell id="0_HJmTUbj6Sz99VHN0pY-13" value="DepositTransaction" style="swimlane;fontStyle=1;align=center;verticalAlign=top;childLayout=stackLayout;horizontal=1;startSize=26;horizontalStack=0;resizeParent=1;resizeParentMax=0;resizeLast=0;collapsible=1;marginBottom=0;whiteSpace=wrap;html=1;" vertex="1" parent="1">
          <mxGeometry x="300" y="430" width="390" height="230" as="geometry" />
        </mxCell>
        <mxCell id="0_HJmTUbj6Sz99VHN0pY-14" value="- _account : Account&lt;div&gt;- _amount : decimal&lt;/div&gt;&lt;div&gt;- _executed : bool&lt;/div&gt;&lt;div&gt;- _success : bool&lt;/div&gt;&lt;div&gt;- _reversed : bool&lt;/div&gt;" style="text;strokeColor=none;fillColor=none;align=left;verticalAlign=top;spacingLeft=4;spacingRight=4;overflow=hidden;rotatable=0;points=[[0,0.5],[1,0.5]];portConstraint=eastwest;whiteSpace=wrap;html=1;" vertex="1" parent="0_HJmTUbj6Sz99VHN0pY-13">
          <mxGeometry y="26" width="390" height="84" as="geometry" />
        </mxCell>
        <mxCell id="0_HJmTUbj6Sz99VHN0pY-15" value="" style="line;strokeWidth=1;fillColor=none;align=left;verticalAlign=middle;spacingTop=-1;spacingLeft=3;spacingRight=3;rotatable=0;labelPosition=right;points=[];portConstraint=eastwest;strokeColor=inherit;" vertex="1" parent="0_HJmTUbj6Sz99VHN0pY-13">
          <mxGeometry y="110" width="390" height="8" as="geometry" />
        </mxCell>
        <mxCell id="0_HJmTUbj6Sz99VHN0pY-16" value="+ DepositeTransaction( account : Account, amount : decimal)&lt;div&gt;+ Executed : bool&amp;lt;&amp;lt;property&amp;gt;&amp;gt;&lt;/div&gt;&lt;div&gt;+ Success : bool&amp;lt;&amp;lt;property&amp;gt;&amp;gt;&lt;/div&gt;&lt;div&gt;+ Reversed : bool&amp;lt;&amp;lt;property&amp;gt;&amp;gt;&lt;/div&gt;&lt;div&gt;+ Print()&lt;/div&gt;&lt;div&gt;+ Execute()&lt;/div&gt;&lt;div&gt;+ Rollback()&lt;/div&gt;" style="text;strokeColor=none;fillColor=none;align=left;verticalAlign=top;spacingLeft=4;spacingRight=4;overflow=hidden;rotatable=0;points=[[0,0.5],[1,0.5]];portConstraint=eastwest;whiteSpace=wrap;html=1;" vertex="1" parent="0_HJmTUbj6Sz99VHN0pY-13">
          <mxGeometry y="118" width="390" height="112" as="geometry" />
        </mxCell>
        <mxCell id="0_HJmTUbj6Sz99VHN0pY-18" value="WithdrawTransaction" style="swimlane;fontStyle=1;align=center;verticalAlign=top;childLayout=stackLayout;horizontal=1;startSize=26;horizontalStack=0;resizeParent=1;resizeParentMax=0;resizeLast=0;collapsible=1;marginBottom=0;whiteSpace=wrap;html=1;" vertex="1" parent="1">
          <mxGeometry x="810" y="640" width="390" height="230" as="geometry" />
        </mxCell>
        <mxCell id="0_HJmTUbj6Sz99VHN0pY-19" value="- _account : Account&lt;div&gt;- _amount : decimal&lt;/div&gt;&lt;div&gt;- _executed : bool&lt;/div&gt;&lt;div&gt;- _success : bool&lt;/div&gt;&lt;div&gt;- _reversed : bool&lt;/div&gt;" style="text;strokeColor=none;fillColor=none;align=left;verticalAlign=top;spacingLeft=4;spacingRight=4;overflow=hidden;rotatable=0;points=[[0,0.5],[1,0.5]];portConstraint=eastwest;whiteSpace=wrap;html=1;" vertex="1" parent="0_HJmTUbj6Sz99VHN0pY-18">
          <mxGeometry y="26" width="390" height="84" as="geometry" />
        </mxCell>
        <mxCell id="0_HJmTUbj6Sz99VHN0pY-20" value="" style="line;strokeWidth=1;fillColor=none;align=left;verticalAlign=middle;spacingTop=-1;spacingLeft=3;spacingRight=3;rotatable=0;labelPosition=right;points=[];portConstraint=eastwest;strokeColor=inherit;" vertex="1" parent="0_HJmTUbj6Sz99VHN0pY-18">
          <mxGeometry y="110" width="390" height="8" as="geometry" />
        </mxCell>
        <mxCell id="0_HJmTUbj6Sz99VHN0pY-21" value="+ WithdrawTransaction( account : Account, amount : decimal)&lt;div&gt;+ Executed : bool&amp;lt;&amp;lt;property&amp;gt;&amp;gt;&lt;/div&gt;&lt;div&gt;+ Success : bool&amp;lt;&amp;lt;property&amp;gt;&amp;gt;&lt;/div&gt;&lt;div&gt;+ Reversed : bool&amp;lt;&amp;lt;property&amp;gt;&amp;gt;&lt;/div&gt;&lt;div&gt;+ Print()&lt;/div&gt;&lt;div&gt;+ Execute()&lt;/div&gt;&lt;div&gt;+ Rollback()&lt;/div&gt;" style="text;strokeColor=none;fillColor=none;align=left;verticalAlign=top;spacingLeft=4;spacingRight=4;overflow=hidden;rotatable=0;points=[[0,0.5],[1,0.5]];portConstraint=eastwest;whiteSpace=wrap;html=1;" vertex="1" parent="0_HJmTUbj6Sz99VHN0pY-18">
          <mxGeometry y="118" width="390" height="112" as="geometry" />
        </mxCell>
        <mxCell id="0_HJmTUbj6Sz99VHN0pY-22" value="TransferTransaction" style="swimlane;fontStyle=1;align=center;verticalAlign=top;childLayout=stackLayout;horizontal=1;startSize=26;horizontalStack=0;resizeParent=1;resizeParentMax=0;resizeLast=0;collapsible=1;marginBottom=0;whiteSpace=wrap;html=1;" vertex="1" parent="1">
          <mxGeometry x="1510" y="460" width="490" height="270" as="geometry" />
        </mxCell>
        <mxCell id="0_HJmTUbj6Sz99VHN0pY-23" value="- _toAccount : Account&lt;div&gt;- _fromAccount : Account&lt;br&gt;&lt;div&gt;- _amount : decimal&lt;/div&gt;&lt;div&gt;- _theDeposit : DepositTransaction&lt;/div&gt;&lt;div&gt;- _theWithdraw : WithdrawTransaction&lt;/div&gt;&lt;div&gt;- _executed : bool&lt;/div&gt;&lt;div&gt;- _success : bool&lt;/div&gt;&lt;div&gt;- _reversed : bool&lt;/div&gt;&lt;/div&gt;" style="text;strokeColor=none;fillColor=none;align=left;verticalAlign=top;spacingLeft=4;spacingRight=4;overflow=hidden;rotatable=0;points=[[0,0.5],[1,0.5]];portConstraint=eastwest;whiteSpace=wrap;html=1;" vertex="1" parent="0_HJmTUbj6Sz99VHN0pY-22">
          <mxGeometry y="26" width="490" height="124" as="geometry" />
        </mxCell>
        <mxCell id="0_HJmTUbj6Sz99VHN0pY-24" value="" style="line;strokeWidth=1;fillColor=none;align=left;verticalAlign=middle;spacingTop=-1;spacingLeft=3;spacingRight=3;rotatable=0;labelPosition=right;points=[];portConstraint=eastwest;strokeColor=inherit;" vertex="1" parent="0_HJmTUbj6Sz99VHN0pY-22">
          <mxGeometry y="150" width="490" height="8" as="geometry" />
        </mxCell>
        <mxCell id="0_HJmTUbj6Sz99VHN0pY-25" value="+ TransferTransaction( fromAccount : Account, toAccount : Account, amount : decimal)&lt;div&gt;+ Executed : bool&amp;lt;&amp;lt;property&amp;gt;&amp;gt;&lt;/div&gt;&lt;div&gt;+ Success : bool&amp;lt;&amp;lt;property&amp;gt;&amp;gt;&lt;/div&gt;&lt;div&gt;+ Reversed : bool&amp;lt;&amp;lt;property&amp;gt;&amp;gt;&lt;/div&gt;&lt;div&gt;+ Print()&lt;/div&gt;&lt;div&gt;+ Execute()&lt;/div&gt;&lt;div&gt;+ Rollback()&lt;/div&gt;" style="text;strokeColor=none;fillColor=none;align=left;verticalAlign=top;spacingLeft=4;spacingRight=4;overflow=hidden;rotatable=0;points=[[0,0.5],[1,0.5]];portConstraint=eastwest;whiteSpace=wrap;html=1;" vertex="1" parent="0_HJmTUbj6Sz99VHN0pY-22">
          <mxGeometry y="158" width="490" height="112" as="geometry" />
        </mxCell>
        <mxCell id="0_HJmTUbj6Sz99VHN0pY-26" value="Program" style="swimlane;fontStyle=1;align=center;verticalAlign=top;childLayout=stackLayout;horizontal=1;startSize=26;horizontalStack=0;resizeParent=1;resizeParentMax=0;resizeLast=0;collapsible=1;marginBottom=0;whiteSpace=wrap;html=1;" vertex="1" parent="1">
          <mxGeometry x="500" y="-80" width="270" height="210" as="geometry" />
        </mxCell>
        <mxCell id="0_HJmTUbj6Sz99VHN0pY-27" value="&amp;nbsp;&lt;div&gt;&amp;nbsp;&lt;/div&gt;" style="text;strokeColor=none;fillColor=none;align=left;verticalAlign=top;spacingLeft=4;spacingRight=4;overflow=hidden;rotatable=0;points=[[0,0.5],[1,0.5]];portConstraint=eastwest;whiteSpace=wrap;html=1;" vertex="1" parent="0_HJmTUbj6Sz99VHN0pY-26">
          <mxGeometry y="26" width="270" height="26" as="geometry" />
        </mxCell>
        <mxCell id="0_HJmTUbj6Sz99VHN0pY-28" value="" style="line;strokeWidth=1;fillColor=none;align=left;verticalAlign=middle;spacingTop=-1;spacingLeft=3;spacingRight=3;rotatable=0;labelPosition=right;points=[];portConstraint=eastwest;strokeColor=inherit;" vertex="1" parent="0_HJmTUbj6Sz99VHN0pY-26">
          <mxGeometry y="52" width="270" height="8" as="geometry" />
        </mxCell>
        <mxCell id="0_HJmTUbj6Sz99VHN0pY-29" value="+ Main()&lt;div&gt;- FindAccount( fromBank : Bank) : Account&lt;/div&gt;&lt;div&gt;- AddAccount( bank : Bank)&lt;/div&gt;&lt;div&gt;- ReadUserOption() : MenuOption&lt;/div&gt;&lt;div&gt;- DoTransfer( bank : Bank)&lt;/div&gt;&lt;div&gt;- DoDeposit( toBank : Bank)&lt;/div&gt;&lt;div&gt;- DoWithDraw( fromBank : Bank)&lt;/div&gt;&lt;div&gt;+ DoPrint( account : Account)&lt;/div&gt;" style="text;strokeColor=none;fillColor=none;align=left;verticalAlign=top;spacingLeft=4;spacingRight=4;overflow=hidden;rotatable=0;points=[[0,0.5],[1,0.5]];portConstraint=eastwest;whiteSpace=wrap;html=1;" vertex="1" parent="0_HJmTUbj6Sz99VHN0pY-26">
          <mxGeometry y="60" width="270" height="150" as="geometry" />
        </mxCell>
        <mxCell id="0_HJmTUbj6Sz99VHN0pY-30" value="MenuOption&amp;lt;&amp;lt;enumeration&amp;gt;&amp;gt;" style="swimlane;fontStyle=1;align=center;verticalAlign=top;childLayout=stackLayout;horizontal=1;startSize=26;horizontalStack=0;resizeParent=1;resizeParentMax=0;resizeLast=0;collapsible=1;marginBottom=0;whiteSpace=wrap;html=1;" vertex="1" parent="1">
          <mxGeometry x="-50" y="-110" width="360" height="154" as="geometry" />
        </mxCell>
        <mxCell id="0_HJmTUbj6Sz99VHN0pY-31" value="+ Withdraw&lt;div&gt;+ Deposit&lt;/div&gt;&lt;div&gt;+ Transfer&lt;/div&gt;&lt;div&gt;+ NewAccount&lt;/div&gt;&lt;div&gt;+ Print&lt;/div&gt;&lt;div&gt;+Quit&lt;/div&gt;" style="text;strokeColor=none;fillColor=none;align=left;verticalAlign=top;spacingLeft=4;spacingRight=4;overflow=hidden;rotatable=0;points=[[0,0.5],[1,0.5]];portConstraint=eastwest;whiteSpace=wrap;html=1;" vertex="1" parent="0_HJmTUbj6Sz99VHN0pY-30">
          <mxGeometry y="26" width="360" height="94" as="geometry" />
        </mxCell>
        <mxCell id="0_HJmTUbj6Sz99VHN0pY-32" value="" style="line;strokeWidth=1;fillColor=none;align=left;verticalAlign=middle;spacingTop=-1;spacingLeft=3;spacingRight=3;rotatable=0;labelPosition=right;points=[];portConstraint=eastwest;strokeColor=inherit;" vertex="1" parent="0_HJmTUbj6Sz99VHN0pY-30">
          <mxGeometry y="120" width="360" height="8" as="geometry" />
        </mxCell>
        <mxCell id="0_HJmTUbj6Sz99VHN0pY-33" value="&amp;nbsp;" style="text;strokeColor=none;fillColor=none;align=left;verticalAlign=top;spacingLeft=4;spacingRight=4;overflow=hidden;rotatable=0;points=[[0,0.5],[1,0.5]];portConstraint=eastwest;whiteSpace=wrap;html=1;" vertex="1" parent="0_HJmTUbj6Sz99VHN0pY-30">
          <mxGeometry y="128" width="360" height="26" as="geometry" />
        </mxCell>
        <mxCell id="0_HJmTUbj6Sz99VHN0pY-35" value="&lt;font style=&quot;font-size: 24px;&quot;&gt;1&lt;/font&gt;" style="endArrow=open;html=1;endSize=12;startArrow=diamondThin;startSize=14;startFill=0;edgeStyle=orthogonalEdgeStyle;align=left;verticalAlign=bottom;rounded=0;exitX=1;exitY=0.5;exitDx=0;exitDy=0;entryX=-0.012;entryY=0.248;entryDx=0;entryDy=0;entryPerimeter=0;" edge="1" parent="1" source="0_HJmTUbj6Sz99VHN0pY-2" target="0_HJmTUbj6Sz99VHN0pY-8">
          <mxGeometry x="-0.9496" y="18" relative="1" as="geometry">
            <mxPoint x="1420" y="240" as="sourcePoint" />
            <mxPoint x="1580" y="240" as="targetPoint" />
            <mxPoint as="offset" />
          </mxGeometry>
        </mxCell>
        <mxCell id="0_HJmTUbj6Sz99VHN0pY-36" value="&lt;font style=&quot;font-size: 24px;&quot;&gt;*&lt;/font&gt;" style="text;html=1;align=center;verticalAlign=middle;resizable=0;points=[];autosize=1;strokeColor=none;fillColor=none;" vertex="1" parent="1">
          <mxGeometry x="1565" y="153" width="30" height="40" as="geometry" />
        </mxCell>
        <mxCell id="0_HJmTUbj6Sz99VHN0pY-40" value="" style="endArrow=open;endFill=1;endSize=12;html=1;rounded=0;entryX=1.008;entryY=0.288;entryDx=0;entryDy=0;entryPerimeter=0;exitX=-0.01;exitY=0.112;exitDx=0;exitDy=0;exitPerimeter=0;edgeStyle=orthogonalEdgeStyle;" edge="1" parent="1" source="0_HJmTUbj6Sz99VHN0pY-29" target="0_HJmTUbj6Sz99VHN0pY-31">
          <mxGeometry width="160" relative="1" as="geometry">
            <mxPoint x="650" y="70" as="sourcePoint" />
            <mxPoint x="810" y="70" as="targetPoint" />
          </mxGeometry>
        </mxCell>
        <mxCell id="0_HJmTUbj6Sz99VHN0pY-56" value="RadUserOption" style="edgeLabel;html=1;align=center;verticalAlign=middle;resizable=0;points=[];" vertex="1" connectable="0" parent="0_HJmTUbj6Sz99VHN0pY-40">
          <mxGeometry x="-0.0412" y="-2" relative="1" as="geometry">
            <mxPoint y="-1" as="offset" />
          </mxGeometry>
        </mxCell>
        <mxCell id="0_HJmTUbj6Sz99VHN0pY-51" value="ExecuteTransaction" style="endArrow=open;startArrow=none;endFill=0;startFill=0;endSize=8;html=1;verticalAlign=bottom;dashed=1;labelBackgroundColor=none;rounded=0;exitX=0.655;exitY=0.973;exitDx=0;exitDy=0;exitPerimeter=0;entryX=0.5;entryY=0;entryDx=0;entryDy=0;" edge="1" parent="1" source="0_HJmTUbj6Sz99VHN0pY-4" target="0_HJmTUbj6Sz99VHN0pY-22">
          <mxGeometry x="-0.4207" y="-20" width="160" relative="1" as="geometry">
            <mxPoint x="1800.9499999999998" y="242.13800000000026" as="sourcePoint" />
            <mxPoint x="1710" y="612.63" as="targetPoint" />
            <mxPoint as="offset" />
          </mxGeometry>
        </mxCell>
        <mxCell id="0_HJmTUbj6Sz99VHN0pY-52" value="ExecuteTransaction" style="endArrow=open;startArrow=none;endFill=0;startFill=0;endSize=8;html=1;verticalAlign=bottom;dashed=1;labelBackgroundColor=none;rounded=0;exitX=0.372;exitY=1.071;exitDx=0;exitDy=0;exitPerimeter=0;" edge="1" parent="1" source="0_HJmTUbj6Sz99VHN0pY-4" target="0_HJmTUbj6Sz99VHN0pY-18">
          <mxGeometry x="-0.4011" y="-7" width="160" relative="1" as="geometry">
            <mxPoint x="1596.550000000001" y="242.13800000000026" as="sourcePoint" />
            <mxPoint x="1720" y="622.63" as="targetPoint" />
            <mxPoint as="offset" />
          </mxGeometry>
        </mxCell>
        <mxCell id="0_HJmTUbj6Sz99VHN0pY-53" value="ExecuteTransaction" style="endArrow=open;startArrow=none;endFill=0;startFill=0;endSize=8;html=1;verticalAlign=bottom;dashed=1;labelBackgroundColor=none;rounded=0;exitX=0.089;exitY=1.032;exitDx=0;exitDy=0;exitPerimeter=0;entryX=0.75;entryY=0;entryDx=0;entryDy=0;" edge="1" parent="1" source="0_HJmTUbj6Sz99VHN0pY-4" target="0_HJmTUbj6Sz99VHN0pY-13">
          <mxGeometry x="0.4468" y="-17" width="160" relative="1" as="geometry">
            <mxPoint x="1482.1000000000004" y="219.99799999999993" as="sourcePoint" />
            <mxPoint x="1143" y="612.63" as="targetPoint" />
            <mxPoint y="1" as="offset" />
          </mxGeometry>
        </mxCell>
        <mxCell id="0_HJmTUbj6Sz99VHN0pY-54" value="DoDeposit / DoWithdraw / DoTransfer" style="endArrow=open;startArrow=none;endFill=0;startFill=0;endSize=8;html=1;verticalAlign=bottom;dashed=1;labelBackgroundColor=none;rounded=0;exitX=1.007;exitY=0.295;exitDx=0;exitDy=0;exitPerimeter=0;entryX=0;entryY=0.5;entryDx=0;entryDy=0;" edge="1" parent="1" source="0_HJmTUbj6Sz99VHN0pY-29" target="0_HJmTUbj6Sz99VHN0pY-2">
          <mxGeometry x="0.1538" y="-25" width="160" relative="1" as="geometry">
            <mxPoint x="1012" y="157" as="sourcePoint" />
            <mxPoint x="203" y="500" as="targetPoint" />
            <mxPoint x="-25" y="-25" as="offset" />
          </mxGeometry>
        </mxCell>
        <mxCell id="0_HJmTUbj6Sz99VHN0pY-59" value="Execute / Rollback / Print" style="endArrow=open;startArrow=none;endFill=0;startFill=0;endSize=8;html=1;verticalAlign=bottom;dashed=1;labelBackgroundColor=none;rounded=0;exitX=1.009;exitY=0.25;exitDx=0;exitDy=0;exitPerimeter=0;entryX=0;entryY=0.5;entryDx=0;entryDy=0;" edge="1" parent="1" source="0_HJmTUbj6Sz99VHN0pY-14" target="0_HJmTUbj6Sz99VHN0pY-8">
          <mxGeometry x="0.4466" y="-18" width="160" relative="1" as="geometry">
            <mxPoint x="1131" y="143" as="sourcePoint" />
            <mxPoint x="603" y="440" as="targetPoint" />
            <mxPoint as="offset" />
          </mxGeometry>
        </mxCell>
        <mxCell id="0_HJmTUbj6Sz99VHN0pY-60" value="Execute / Rollback / Print" style="endArrow=open;startArrow=none;endFill=0;startFill=0;endSize=8;html=1;verticalAlign=bottom;dashed=1;labelBackgroundColor=none;rounded=0;entryX=-0.017;entryY=0.947;entryDx=0;entryDy=0;entryPerimeter=0;" edge="1" parent="1" source="0_HJmTUbj6Sz99VHN0pY-18" target="0_HJmTUbj6Sz99VHN0pY-8">
          <mxGeometry x="0.4466" y="-18" width="160" relative="1" as="geometry">
            <mxPoint x="704" y="487" as="sourcePoint" />
            <mxPoint x="1720" y="271" as="targetPoint" />
            <mxPoint as="offset" />
          </mxGeometry>
        </mxCell>
        <mxCell id="0_HJmTUbj6Sz99VHN0pY-61" value="Execute / Rollback / Print" style="endArrow=open;startArrow=none;endFill=0;startFill=0;endSize=8;html=1;verticalAlign=bottom;dashed=1;labelBackgroundColor=none;rounded=0;entryX=0.397;entryY=1.045;entryDx=0;entryDy=0;entryPerimeter=0;exitX=0.652;exitY=0.009;exitDx=0;exitDy=0;exitPerimeter=0;" edge="1" parent="1" source="0_HJmTUbj6Sz99VHN0pY-22" target="0_HJmTUbj6Sz99VHN0pY-8">
          <mxGeometry x="0.4466" y="-18" width="160" relative="1" as="geometry">
            <mxPoint x="1173" y="595" as="sourcePoint" />
            <mxPoint x="1625" y="266" as="targetPoint" />
            <mxPoint as="offset" />
          </mxGeometry>
        </mxCell>
        <mxCell id="0_HJmTUbj6Sz99VHN0pY-62" value="Execute / rollback" style="endArrow=open;startArrow=none;endFill=0;startFill=0;endSize=8;html=1;verticalAlign=bottom;dashed=1;labelBackgroundColor=none;rounded=0;entryX=0.999;entryY=0.774;entryDx=0;entryDy=0;entryPerimeter=0;exitX=-0.009;exitY=0.702;exitDx=0;exitDy=0;exitPerimeter=0;" edge="1" parent="1" source="0_HJmTUbj6Sz99VHN0pY-23" target="0_HJmTUbj6Sz99VHN0pY-14">
          <mxGeometry x="-0.6898" y="-15" width="160" relative="1" as="geometry">
            <mxPoint x="1155" y="650" as="sourcePoint" />
            <mxPoint x="1625" y="266" as="targetPoint" />
            <mxPoint as="offset" />
          </mxGeometry>
        </mxCell>
        <mxCell id="0_HJmTUbj6Sz99VHN0pY-63" value="Execute / rollback" style="endArrow=open;startArrow=none;endFill=0;startFill=0;endSize=8;html=1;verticalAlign=bottom;dashed=1;labelBackgroundColor=none;rounded=0;entryX=1;entryY=0.5;entryDx=0;entryDy=0;exitX=-0.009;exitY=0.702;exitDx=0;exitDy=0;exitPerimeter=0;" edge="1" parent="1" target="0_HJmTUbj6Sz99VHN0pY-19">
          <mxGeometry x="0.2724" y="-13" width="160" relative="1" as="geometry">
            <mxPoint x="1516" y="583" as="sourcePoint" />
            <mxPoint x="700" y="531" as="targetPoint" />
            <mxPoint y="-1" as="offset" />
          </mxGeometry>
        </mxCell>
      </root>
    </mxGraphModel>
  </diagram>
</mxfile>
